HIERARCHY
ROOT hips
{
	OFFSET -0.003675 0.299928 -0.021708
	CHANNELS 6 Xposition Yposition Zposition Xrotation Yrotation Zrotation
	JOINT LowerBack
	{
		OFFSET 0.000919 0.177588 0.009275
		CHANNELS 3 Xrotation Yrotation Zrotation
		JOINT spine
		{
			OFFSET 0.000919 0.177588 0.009275
			CHANNELS 3 Xrotation Yrotation Zrotation
			JOINT chest
			{
				OFFSET 0.000456 0.100015 0.004638
				CHANNELS 3 Xrotation Yrotation Zrotation
				JOINT neck
				{
					OFFSET 0.000456 0.100015 0.004638
					CHANNELS 3 Xrotation Yrotation Zrotation
					JOINT head
					{
						OFFSET 0.000924 0.155147 0.009274
						CHANNELS 6 Xposition Yposition Zposition Xrotation Yrotation Zrotation
						End Site
						{
							OFFSET 0.000000 0.153400 0.000000
						}
					}
				}
				JOINT shoulder.L
				{
					OFFSET 0.019937 0.078966 0.057518
					CHANNELS 6 Xposition Yposition Zposition Yrotation Xrotation Zrotation
					JOINT upper_arm.L
					{
						OFFSET 0.177024 -0.020465 -0.095062
						CHANNELS 6 Xposition Yposition Zposition Xrotation Yrotation Zrotation
						JOINT forearm.L
						{
							OFFSET 0.247100 -0.135500 -0.061800
							CHANNELS 3 Xrotation Yrotation Zrotation
							JOINT hand.L
							{
								OFFSET 0.217000 -0.143000 0.039300
								CHANNELS 3 Xrotation Yrotation Zrotation
								JOINT palm.01.L
								{
									OFFSET 0.021770 -0.038291 0.012954
									CHANNELS 6 Xposition Yposition Zposition Yrotation Xrotation Zrotation
									JOINT f_index.01.L
									{
										OFFSET 0.053215 -0.044137 0.008236
										CHANNELS 3 Xrotation Yrotation Zrotation
										JOINT f_index.02.L
										{
											OFFSET 0.036108 -0.024723 -0.010656
											CHANNELS 3 Xrotation Yrotation Zrotation
											JOINT f_index.03.L
											{
												OFFSET 0.021342 -0.014948 -0.010846
												CHANNELS 3 Xrotation Yrotation Zrotation
												End Site
												{
													OFFSET 0.015600 -0.009860 -0.013421
												}
											}
										}
									}
									JOINT thumb.01.L
									{
										OFFSET -0.009090 -0.002348 -0.024223
										CHANNELS 6 Xposition Yposition Zposition Xrotation Yrotation Zrotation
										JOINT thumb.02.L
										{
											OFFSET 0.019713 -0.035076 -0.011120
											CHANNELS 3 Xrotation Yrotation Zrotation
											JOINT thumb.03.L
											{
												OFFSET 0.024877 -0.021748 -0.005176
												CHANNELS 3 Xrotation Yrotation Zrotation
												End Site
												{
													OFFSET 0.016125 -0.013029 -0.001569
												}
											}
										}
									}
								}
								JOINT palm.02.L
								{
									OFFSET 0.032823 -0.025104 0.012281
									CHANNELS 6 Xposition Yposition Zposition Yrotation Xrotation Zrotation
									JOINT f_middle.01.L
									{
										OFFSET 0.055723 -0.038469 0.008037
										CHANNELS 3 Xrotation Yrotation Zrotation
										JOINT f_middle.02.L
										{
											OFFSET 0.038167 -0.027473 -0.015582
											CHANNELS 3 Xrotation Yrotation Zrotation
											JOINT f_middle.03.L
											{
												OFFSET 0.021707 -0.016587 -0.017037
												CHANNELS 3 Xrotation Yrotation Zrotation
												End Site
												{
													OFFSET 0.014112 -0.010584 -0.014294
												}
											}
										}
									}
								}
								JOINT palm.03.L
								{
									OFFSET 0.039230 -0.011402 0.008390
									CHANNELS 6 Xposition Yposition Zposition Yrotation Xrotation Zrotation
									JOINT f_ring.01.L
									{
										OFFSET 0.061796 -0.031470 0.007910
										CHANNELS 3 Xrotation Yrotation Zrotation
										JOINT f_ring.02.L
										{
											OFFSET 0.033092 -0.023401 -0.019127
											CHANNELS 3 Xrotation Yrotation Zrotation
											JOINT f_ring.03.L
											{
												OFFSET 0.021392 -0.015362 -0.017824
												CHANNELS 3 Xrotation Yrotation Zrotation
												End Site
												{
													OFFSET 0.008670 -0.007297 -0.014686
												}
											}
										}
									}
								}
								JOINT palm.04.L
								{
									OFFSET 0.043417 0.002450 0.002889
									CHANNELS 6 Xposition Yposition Zposition Yrotation Xrotation Zrotation
									JOINT f_pinky.01.L
									{
										OFFSET 0.069986 -0.026156 0.003627
										CHANNELS 3 Xrotation Yrotation Zrotation
										JOINT f_pinky.02.L
										{
											OFFSET 0.018520 -0.012813 -0.016429
											CHANNELS 3 Xrotation Yrotation Zrotation
											JOINT f_pinky.03.L
											{
												OFFSET 0.013822 -0.009796 -0.014947
												CHANNELS 3 Xrotation Yrotation Zrotation
												End Site
												{
													OFFSET 0.007238 -0.006103 -0.011657
												}
											}
										}
									}
								}
							}
						}
					}
				}
				JOINT shoulder.R
				{
					OFFSET -0.016662 0.078957 0.057696
					CHANNELS 6 Xposition Yposition Zposition Yrotation Xrotation Zrotation
					JOINT upper_arm.R
					{
						OFFSET -0.176972 -0.020537 -0.095144
						CHANNELS 6 Xposition Yposition Zposition Xrotation Yrotation Zrotation
						JOINT forearm.R
						{
							OFFSET -0.247100 -0.135500 -0.061800
							CHANNELS 3 Xrotation Yrotation Zrotation
							JOINT hand.R
							{
								OFFSET -0.217000 -0.143000 0.039300
								CHANNELS 3 Xrotation Yrotation Zrotation
								JOINT palm.01.R
								{
									OFFSET -0.021773 -0.038278 0.012988
									CHANNELS 6 Xposition Yposition Zposition Yrotation Xrotation Zrotation
									JOINT f_index.01.R
									{
										OFFSET -0.053212 -0.044139 0.008249
										CHANNELS 3 Xrotation Yrotation Zrotation
										JOINT f_index.02.R
										{
											OFFSET -0.036049 -0.024835 -0.010634
											CHANNELS 3 Xrotation Yrotation Zrotation
											JOINT f_index.03.R
											{
												OFFSET -0.021371 -0.014881 -0.010866
												CHANNELS 3 Xrotation Yrotation Zrotation
												End Site
												{
													OFFSET -0.015584 -0.009883 -0.013422
												}
											}
										}
									}
									JOINT thumb.01.R
									{
										OFFSET 0.009113 -0.002381 -0.024211
										CHANNELS 6 Xposition Yposition Zposition Xrotation Yrotation Zrotation
										JOINT thumb.02.R
										{
											OFFSET -0.019694 -0.035097 -0.011088
											CHANNELS 3 Xrotation Yrotation Zrotation
											JOINT thumb.03.R
											{
												OFFSET -0.024867 -0.021762 -0.005168
												CHANNELS 3 Xrotation Yrotation Zrotation
												End Site
												{
													OFFSET -0.016120 -0.013036 -0.001565
												}
											}
										}
									}
								}
								JOINT palm.02.R
								{
									OFFSET -0.032828 -0.025095 0.012286
									CHANNELS 6 Xposition Yposition Zposition Yrotation Xrotation Zrotation
									JOINT f_middle.01.R
									{
										OFFSET -0.055721 -0.038472 0.008040
										CHANNELS 3 Xrotation Yrotation Zrotation
										JOINT f_middle.02.R
										{
											OFFSET -0.038101 -0.027593 -0.015557
											CHANNELS 3 Xrotation Yrotation Zrotation
											JOINT f_middle.03.R
											{
												OFFSET -0.021730 -0.016530 -0.017054
												CHANNELS 3 Xrotation Yrotation Zrotation
												End Site
												{
													OFFSET -0.014096 -0.010608 -0.014293
												}
											}
										}
									}
								}
								JOINT palm.03.R
								{
									OFFSET -0.039192 -0.011488 0.008390
									CHANNELS 6 Xposition Yposition Zposition Yrotation Xrotation Zrotation
									JOINT f_ring.01.R
									{
										OFFSET -0.061839 -0.031387 0.007876
										CHANNELS 3 Xrotation Yrotation Zrotation
										JOINT f_ring.02.R
										{
											OFFSET -0.033068 -0.023437 -0.019125
											CHANNELS 3 Xrotation Yrotation Zrotation
											JOINT f_ring.03.R
											{
												OFFSET -0.021371 -0.015393 -0.017822
												CHANNELS 3 Xrotation Yrotation Zrotation
												End Site
												{
													OFFSET -0.008654 -0.007321 -0.014684
												}
											}
										}
									}
								}
								JOINT palm.04.R
								{
									OFFSET -0.043421 0.002443 0.002845
									CHANNELS 6 Xposition Yposition Zposition Yrotation Xrotation Zrotation
									JOINT f_pinky.01.R
									{
										OFFSET -0.069983 -0.026169 0.003599
										CHANNELS 3 Xrotation Yrotation Zrotation
										JOINT f_pinky.02.R
										{
											OFFSET -0.018501 -0.012842 -0.016428
											CHANNELS 3 Xrotation Yrotation Zrotation
											JOINT f_pinky.03.R
											{
												OFFSET -0.013806 -0.009821 -0.014946
												CHANNELS 3 Xrotation Yrotation Zrotation
												End Site
												{
													OFFSET -0.007226 -0.006121 -0.011655
												}
											}
										}
									}
								}
							}
						}
					}
				}
			}
		}
	}
	JOINT pelvis.L
	{
		OFFSET 0.000000 0.000000 0.000000
		CHANNELS 6 Xposition Yposition Zposition Xrotation Yrotation Zrotation
		JOINT thigh.L
		{
			OFFSET 0.101675 0.001054 -0.000000
			CHANNELS 3 Xrotation Yrotation Zrotation
			JOINT shin.L
			{
				OFFSET 0.000000 -0.534800 0.041000
				CHANNELS 3 Xrotation Yrotation Zrotation
				JOINT foot.L
				{
					OFFSET 0.000000 -0.452000 -0.044800
					CHANNELS 3 Xrotation Yrotation Zrotation
					JOINT toe.L
					{
						OFFSET -0.000000 -0.068500 0.109600
						CHANNELS 3 Xrotation Yrotation Zrotation
						End Site
						{
							OFFSET -0.000000 0.000000 0.067200
						}
					}
				}
				JOINT heel.L
				{
					OFFSET 0.000000 -0.452000 -0.044800
					CHANNELS 3 Xrotation Yrotation Zrotation
					JOINT heel.02.L
					{
						OFFSET -0.038000 -0.085200 0.016200
						CHANNELS 6 Xposition Yposition Zposition Xrotation Yrotation Zrotation
						End Site
						{
							OFFSET 0.080000 -0.000000 0.000000
						}
					}
				}
			}
		}
	}
	JOINT pelvis.R
	{
		OFFSET 0.000000 0.000000 0.000000
		CHANNELS 6 Xposition Yposition Zposition Xrotation Yrotation Zrotation
		JOINT thigh.R
		{
			OFFSET -0.094325 0.001054 0.000000
			CHANNELS 3 Xrotation Yrotation Zrotation
			JOINT shin.R
			{
				OFFSET 0.000000 -0.534800 0.041000
				CHANNELS 3 Xrotation Yrotation Zrotation
				JOINT foot.R
				{
					OFFSET 0.000000 -0.452000 -0.044800
					CHANNELS 3 Xrotation Yrotation Zrotation
					JOINT toe.R
					{
						OFFSET -0.000000 -0.068500 0.109600
						CHANNELS 3 Xrotation Yrotation Zrotation
						End Site
						{
							OFFSET -0.000000 0.000000 0.067200
						}
					}
				}
				JOINT heel.R
				{
					OFFSET 0.000000 -0.452000 -0.044800
					CHANNELS 3 Xrotation Yrotation Zrotation
					JOINT heel.02.R
					{
						OFFSET 0.038000 -0.085200 0.016200
						CHANNELS 6 Xposition Yposition Zposition Xrotation Yrotation Zrotation
						End Site
						{
							OFFSET -0.080000 0.000000 -0.000000
						}
					}
				}
			}
		}
	}
}
MOTION
Frames: 4
Frame Time: 0.041667
-0.017243 0.226708 -0.003936 -68.594620 14.565797 100.723181 0.000001 -0.000000 -0.000001 -0.000001 -0.000000 0.000001 -0.000001 0.000001 -0.000001 0.000000 0.000002 0.000000 0.000924 0.155148 0.009274 -16.554697 0.060136 -7.553394 0.019937 0.078966 0.057518 -43.617585 2.869064 31.955747 0.177024 -0.020465 -0.095062 -19.925888 17.626780 -67.665222 -14.416653 -11.569620 -20.553303 0.000002 0.000001 -0.000003 0.021770 -0.038291 0.012954 -0.000001 0.000001 -0.000001 -0.000001 -0.000000 0.000005 0.000001 -0.000002 0.000006 0.000002 0.000000 -0.000001 -0.009090 -0.002348 -0.024224 -0.000002 -0.000001 0.000003 -0.000000 -0.000002 0.000001 -0.000000 -0.000001 0.000001 0.032823 -0.025104 0.012281 0.000000 -0.000002 0.000002 -0.000001 0.000001 -0.000003 -0.000005 -0.000002 0.000006 -0.000003 0.000001 0.000003 0.039230 -0.011402 0.008390 -0.000000 -0.000005 0.000006 -0.000001 0.000000 -0.000002 -0.000001 0.000006 0.000003 0.000002 0.000000 0.000002 0.043417 0.002450 0.002889 -0.000001 0.000004 -0.000004 0.000000 -0.000003 -0.000000 -0.000001 0.000001 -0.000001 -0.000002 0.000002 -0.000002 -0.016662 0.078957 0.057696 -28.185534 5.981472 -22.807106 -0.176972 -0.020537 -0.095144 -10.472179 -10.162448 57.709443 -10.333140 10.918309 13.096329 -0.000002 0.000000 0.000002 -0.021773 -0.038278 0.012988 0.000000 0.000000 0.000000 -0.000005 0.000002 -0.000003 0.000001 -0.000000 -0.000003 -0.000003 0.000004 0.000003 0.009114 -0.002381 -0.024212 -0.000001 0.000000 -0.000002 -0.000002 -0.000003 0.000000 0.000003 0.000000 -0.000006 -0.032828 -0.025095 0.012286 0.000000 0.000001 -0.000001 0.000000 0.000005 -0.000003 0.000001 0.000001 0.000001 -0.000001 0.000001 -0.000000 -0.039192 -0.011488 0.008390 0.000001 0.000000 0.000001 0.000000 0.000002 0.000002 -0.000001 -0.000003 0.000003 0.000003 -0.000003 0.000002 -0.043421 0.002443 0.002845 0.000001 0.000000 -0.000001 -0.000003 0.000002 0.000004 0.000001 -0.000006 -0.000001 -0.000003 0.000000 0.000004 0.000000 0.000000 -0.000000 -1.954662 -1.319197 13.946534 -11.423181 0.684103 9.967974 20.763543 -2.621441 27.513925 -0.000002 -0.000002 0.000000 0.000000 -0.000001 0.000000 0.000002 -0.000002 0.000000 -0.038000 -0.085200 0.016200 0.000000 0.000001 -0.000002 0.000000 0.000000 -0.000000 -1.955942 -1.319526 15.180690 -7.175553 1.481208 18.780029 36.467179 -1.701834 17.444172 0.000002 -0.000002 -0.000001 0.000003 -0.000004 -0.000001 0.000002 -0.000002 -0.000003 0.038000 -0.085200 0.016200 0.000002 0.000002 0.000000 
-0.019109 0.224984 -0.005623 -62.620848 15.814125 98.055357 0.000002 0.000001 -0.000000 0.000003 0.000001 0.000002 -0.000001 -0.000001 0.000000 -0.000001 -0.000000 0.000000 0.000924 0.155148 0.009274 -16.807641 0.063253 -4.442702 0.019937 0.078966 0.057518 -36.730824 0.731109 29.767412 0.177025 -0.020465 -0.095062 -19.134348 17.080392 -67.118145 -11.244372 -10.544877 -16.358537 -0.000000 -0.000003 0.000002 0.021770 -0.038291 0.012954 -0.000000 0.000003 -0.000004 0.000002 -0.000002 0.000001 0.000003 -0.000000 0.000001 0.000003 0.000000 0.000003 -0.009090 -0.002348 -0.024223 0.000003 -0.000002 0.000001 0.000003 -0.000001 -0.000001 0.000001 0.000002 -0.000002 0.032823 -0.025104 0.012281 -0.000000 -0.000001 -0.000001 0.000002 -0.000003 0.000002 -0.000006 0.000003 0.000000 -0.000003 0.000000 -0.000003 0.039230 -0.011402 0.008390 -0.000002 0.000002 0.000004 0.000001 -0.000000 -0.000004 0.000002 0.000008 -0.000002 -0.000000 -0.000007 0.000003 0.043417 0.002450 0.002889 -0.000002 0.000002 -0.000005 -0.000000 -0.000004 0.000003 0.000004 0.000002 0.000000 0.000001 -0.000003 0.000000 -0.016662 0.078956 0.057696 -22.588935 4.046124 -22.660940 -0.176972 -0.020537 -0.095144 -12.577013 -10.500399 57.861661 -3.568329 5.143814 15.709621 0.000002 0.000004 0.000003 -0.021773 -0.038278 0.012988 0.000002 -0.000000 0.000000 0.000001 0.000001 -0.000005 -0.000003 0.000001 -0.000009 -0.000000 0.000005 0.000003 0.009114 -0.002381 -0.024211 0.000003 -0.000002 -0.000003 -0.000001 -0.000002 -0.000001 -0.000002 -0.000001 -0.000003 -0.032828 -0.025095 0.012286 0.000003 -0.000002 -0.000001 0.000002 0.000002 0.000001 0.000003 -0.000002 0.000001 -0.000002 0.000001 -0.000002 -0.039192 -0.011488 0.008390 0.000002 0.000002 0.000003 -0.000001 0.000008 -0.000003 0.000001 -0.000002 -0.000000 0.000002 -0.000002 0.000004 -0.043421 0.002443 0.002845 0.000002 -0.000000 0.000002 -0.000004 0.000001 -0.000004 -0.000003 0.000001 -0.000002 -0.000004 -0.000001 -0.000001 0.000000 0.000000 0.000000 -1.991100 -1.229430 12.874198 -14.464548 0.609037 9.178430 37.493716 -3.037745 32.374379 -0.000003 0.000001 0.000001 -0.000001 0.000000 -0.000002 0.000003 0.000001 -0.000001 -0.038000 -0.085200 0.016200 0.000001 -0.000001 -0.000001 0.000000 0.000000 0.000000 -1.989103 -1.228960 14.108424 -14.420216 1.302196 15.758507 58.266602 -2.155476 22.318744 -0.000005 0.000004 -0.000002 0.000001 0.000002 0.000001 0.000002 -0.000002 0.000003 0.038000 -0.085200 0.016200 0.000001 -0.000003 0.000002 
-0.009858 0.232636 -0.004665 -57.487961 14.679128 93.390153 0.000001 0.000001 0.000001 -0.000002 0.000001 0.000000 -0.000001 0.000001 -0.000000 -0.000002 0.000000 0.000002 0.000924 0.155148 0.009274 -22.931858 0.084428 -0.958574 0.019937 0.078966 0.057518 -21.476726 6.214646 43.565450 0.177025 -0.020465 -0.095062 -22.802602 12.408370 -54.215740 -74.606839 14.055015 -62.950903 -0.000002 0.000001 0.000003 0.021770 -0.038291 0.012954 0.000001 -0.000000 0.000001 0.000001 -0.000002 0.000005 0.000005 -0.000004 0.000008 0.000004 -0.000002 -0.000004 -0.009090 -0.002348 -0.024224 0.000003 -0.000002 -0.000001 0.000002 -0.000004 0.000004 -0.000001 0.000004 -0.000002 0.032823 -0.025104 0.012281 -0.000002 -0.000000 0.000005 -0.000001 0.000002 -0.000005 -0.000003 0.000001 0.000003 -0.000001 0.000002 0.000004 0.039230 -0.011402 0.008390 0.000003 0.000002 0.000004 -0.000004 0.000003 -0.000004 0.000003 0.000003 0.000004 0.000005 -0.000006 0.000006 0.043417 0.002450 0.002889 -0.000001 -0.000001 0.000000 -0.000006 -0.000001 -0.000002 -0.000001 0.000001 -0.000003 -0.000003 0.000003 -0.000005 -0.016662 0.078957 0.057696 -10.819118 5.768525 -33.395336 -0.176972 -0.020537 -0.095144 -32.164577 -12.708194 59.563839 -69.531128 -27.910993 73.079705 -0.000003 0.000001 -0.000004 -0.021773 -0.038278 0.012988 0.000001 -0.000002 0.000000 -0.000001 0.000001 0.000000 -0.000003 -0.000000 -0.000006 0.000001 -0.000005 0.000004 0.009113 -0.002381 -0.024211 0.000002 -0.000000 0.000001 0.000003 0.000003 -0.000001 0.000002 0.000002 -0.000003 -0.032828 -0.025095 0.012286 0.000002 0.000001 0.000001 -0.000001 0.000005 0.000001 -0.000002 0.000000 -0.000004 -0.000004 0.000003 -0.000002 -0.039192 -0.011488 0.008390 -0.000001 0.000001 0.000003 -0.000002 0.000001 -0.000003 0.000000 -0.000002 0.000002 -0.000003 0.000006 -0.000002 -0.043421 0.002443 0.002845 0.000000 0.000002 -0.000001 -0.000004 0.000002 -0.000002 -0.000001 -0.000002 -0.000002 -0.000000 0.000002 -0.000001 0.000000 0.000000 0.000000 -1.651562 -0.988341 11.006216 9.480160 0.546573 6.882985 10.008996 -2.676761 28.146381 -0.000002 -0.000003 -0.000003 -0.000003 0.000000 0.000001 0.000000 -0.000003 -0.000004 -0.038000 -0.085200 0.016200 -0.000000 0.000003 0.000002 0.000000 0.000000 0.000000 -1.645906 -0.987170 12.240502 10.385812 1.069120 14.506944 20.750746 -1.583423 16.194889 0.000000 -0.000005 0.000001 0.000001 -0.000001 0.000001 0.000007 0.000002 0.000003 0.038000 -0.085200 0.016200 -0.000001 -0.000000 -0.000001 
-0.007067 0.233715 -0.004458 -49.660045 13.707683 89.526520 0.000001 0.000002 -0.000000 0.000001 0.000004 -0.000002 -0.000000 0.000002 -0.000001 -0.000002 0.000003 -0.000001 0.000924 0.155147 0.009274 -17.992971 0.062574 1.857030 0.019937 0.078966 0.057518 -10.552650 7.391657 47.905041 0.177024 -0.020465 -0.095062 -32.457995 3.267489 -38.756478 -133.727618 129.441866 -35.598242 -0.000002 -0.000002 -0.000000 0.021770 -0.038291 0.012954 0.000002 0.000002 0.000001 0.000000 -0.000003 0.000001 -0.000003 -0.000002 0.000010 0.000004 -0.000001 0.000003 -0.009090 -0.002348 -0.024224 -0.000001 -0.000004 0.000000 0.000000 0.000001 -0.000000 -0.000001 -0.000001 -0.000001 0.032823 -0.025104 0.012281 0.000001 -0.000003 0.000005 -0.000002 0.000000 -0.000002 -0.000007 0.000002 0.000004 -0.000000 -0.000002 0.000002 0.039230 -0.011402 0.008390 0.000003 -0.000001 0.000004 -0.000001 -0.000000 -0.000002 -0.000001 0.000006 0.000003 0.000005 -0.000003 0.000001 0.043417 0.002450 0.002889 0.000000 -0.000002 0.000000 -0.000000 -0.000005 0.000001 0.000004 -0.000001 0.000002 -0.000000 -0.000001 -0.000000 -0.016662 0.078956 0.057696 -9.230092 7.410541 -40.109142 -0.176972 -0.020537 -0.095144 -38.408869 -1.595126 40.787270 -154.384064 -122.516300 14.054976 0.000000 -0.000002 -0.000003 -0.021773 -0.038278 0.012988 -0.000000 -0.000005 -0.000003 -0.000001 0.000002 -0.000001 -0.000001 -0.000000 -0.000001 0.000001 -0.000005 0.000006 0.009114 -0.002381 -0.024211 0.000001 0.000000 -0.000001 -0.000000 -0.000004 0.000000 0.000000 -0.000000 -0.000001 -0.032828 -0.025095 0.012286 -0.000000 -0.000003 -0.000003 0.000001 0.000001 -0.000003 0.000001 0.000002 -0.000001 -0.000000 0.000003 -0.000004 -0.039192 -0.011488 0.008390 0.000000 -0.000001 -0.000000 -0.000002 0.000002 0.000000 -0.000001 0.000001 0.000002 -0.000005 0.000004 -0.000000 -0.043421 0.002443 0.002845 0.000000 0.000000 -0.000003 -0.000001 0.000001 0.000003 0.000001 -0.000004 -0.000000 0.000005 0.000004 -0.000002 0.000000 0.000000 0.000000 -1.579750 -0.737132 8.141824 20.076165 0.604641 7.058101 4.295688 -1.984991 20.469693 -0.000002 0.000002 -0.000001 0.000000 -0.000002 -0.000002 0.000000 0.000002 -0.000000 -0.038000 -0.085200 0.016200 -0.000000 0.000003 -0.000001 0.000000 0.000000 0.000000 -1.567724 -0.735273 9.376162 23.690678 0.946359 13.783993 3.709776 -1.128505 11.463988 0.000003 -0.000001 -0.000002 0.000002 -0.000000 0.000001 0.000009 -0.000000 0.000002 0.038000 -0.085200 0.016200 0.000001 0.000001 -0.000002 
